# xmcd
#
# Track frame offsets: 
#        150
#        11787
#        24453
#        38688
#        58578
#        71781
#        90309
#        103390
#        117152
#        133600
#
# Disc length: 1929 seconds
#
# Revision: 1
# Processed by: cddbd v1.5.2PL0 Copyright (c) Steve Scherf et al.
# Submitted via: ExactAudioCopy v1.0b1
#
DISCID=8307870a
DTITLE=Stevie Wonder - Tribute To Uncle Ray
DYEAR=1962
DGENRE=Soul
TTITLE0=Hallelujah I Love Her So (stereo)
TTITLE1=Ain't That Love (stereo)
TTITLE2=Don't You Know (stereo)
TTITLE3=(I'm Afraid) The Masquerade Is Over (stereo)
TTITLE4=Frankie and Johnny (stereo)
TTITLE5=Drown In My Own Tears (stereo)
TTITLE6=Come Back Baby (stereo)
TTITLE7=Mary Ann (stereo)
TTITLE8=Sunset (stereo)
TTITLE9=My Baby's Gone (stereo)
EXTD=
EXTT0=
EXTT1=
EXTT2=
EXTT3=
EXTT4=
EXTT5=
EXTT6=
EXTT7=
EXTT8=
EXTT9=
PLAYORDER=
